<?xml version="1.0" standalone="no"?>
<!DOCTYPE svg PUBLIC "-//W3C//DTD SVG 20010904//EN"
 "http://www.w3.org/TR/2001/REC-SVG-20010904/DTD/svg10.dtd">
<svg version="1.0" xmlns="http://www.w3.org/2000/svg"
 width="145.000000pt" height="145.000000pt" viewBox="0 0 145.000000 145.000000"
 preserveAspectRatio="xMidYMid meet">
<metadata>
Created by potrace 1.11, written by Peter Selinger 2001-2013
</metadata>
<g transform="translate(0.000000,145.000000) scale(0.100000,-0.100000)"
fill="#000000" stroke="none">
<path d="M974 1219 c-42 -12 -101 -79 -110 -124 -7 -39 6 -98 29 -129 12 -17
14 -17 51 0 30 15 36 22 30 39 -3 11 -8 36 -11 56 -4 30 -1 39 18 53 30 20 58
20 88 0 21 -15 23 -22 17 -67 -8 -74 7 -87 101 -87 l73 0 0 -35 c0 -32 -3 -35
-28 -35 -49 0 -114 -41 -139 -90 -28 -53 -29 -99 -3 -150 25 -50 71 -81 126
-88 42 -4 44 -6 44 -38 l0 -34 -235 0 -235 0 0 35 c0 29 4 35 20 35 61 0 133
67 146 137 15 77 -43 164 -122 184 l-43 11 -3 82 -3 81 -123 3 c-73 1 -130 -2
-142 -8 -21 -11 -28 -64 -10 -75 6 -3 10 -21 10 -40 0 -24 -7 -39 -26 -54 -15
-12 -32 -21 -39 -21 -7 0 -24 9 -39 21 -19 15 -26 30 -26 54 0 19 5 37 10 40
18 11 11 64 -9 75 -11 5 -76 10 -145 10 l-126 0 0 -335 0 -335 133 0 c90 0
137 4 145 12 15 15 16 64 2 73 -17 10 -11 71 8 88 10 10 32 17 49 17 59 0 82
-65 43 -119 l-19 -28 30 -29 c23 -22 33 -26 47 -18 25 15 62 93 62 130 0 51
-40 115 -90 141 -55 29 -95 29 -150 0 -50 -26 -90 -90 -90 -144 0 -31 -2 -33
-35 -33 l-35 0 0 240 0 240 34 0 c32 0 34 -2 38 -45 19 -161 242 -198 309 -51
10 23 19 53 19 69 0 24 4 27 35 27 l35 0 0 -73 c0 -93 14 -110 82 -101 38 5
49 3 67 -15 30 -30 27 -74 -6 -101 -16 -12 -35 -19 -45 -16 -10 3 -27 9 -37
12 -12 4 -27 -2 -40 -15 -19 -19 -21 -33 -21 -141 l0 -120 335 0 335 0 0 126
c0 69 -5 134 -10 145 -13 23 -47 25 -85 5 -29 -15 -49 -12 -77 12 -24 20 -23
74 0 95 20 19 77 23 87 7 9 -14 58 -13 73 2 8 8 12 55 12 145 l0 133 -84 0
-84 0 -6 36 c-9 47 -68 111 -114 124 -43 12 -56 11 -98 -1z"/>
</g>
</svg>
